# Blender v3.1.2 OBJ File: 'button_encased_push.blend'
# www.blender.org
o cover
v -0.750000 -0.250000 1.500000
v -0.750000 -0.000000 0.000000
v 0.750000 -0.250000 1.500000
v 0.750000 -0.000000 0.000000
v -0.750000 0.375000 0.000000
v 0.750000 0.375000 0.000000
v -0.750000 0.375000 1.500000
v 0.750000 0.375000 1.500000
vt 0.390625 0.078125
vt 0.015625 0.171875
vt 0.015625 0.078125
vt 0.015625 0.078125
vt 0.390625 0.171875
vt 0.390625 0.078125
vt 0.390625 0.171875
vt 0.015625 0.078125
vt 0.015625 0.171875
vt 0.390625 0.578125
vt 0.015625 0.203125
vt 0.015625 0.578125
vt 0.390625 0.171875
vt 0.015625 0.171875
vt 0.390625 0.015625
vt 0.390625 0.015625
vt 0.390625 0.203125
vn 0.0000 0.0000 1.0000
vn 0.0000 0.0000 -1.0000
vn 1.0000 0.0000 0.0000
vn -1.0000 0.0000 0.0000
vn 0.0000 -1.0000 -0.0000
s off
f 4/1/1 5/2/1 2/3/1
f 1/4/2 8/5/2 3/6/2
f 7/7/3 2/3/3 5/2/3
f 4/8/4 8/5/4 6/9/4
f 6/10/5 7/11/5 5/12/5
f 4/1/1 6/13/1 5/2/1
f 1/4/2 7/14/2 8/5/2
f 7/7/3 1/15/3 2/3/3
f 4/8/4 3/16/4 8/5/4
f 6/10/5 8/17/5 7/11/5
o cover2
v -0.750000 -0.250000 1.500000
v -0.750000 -0.000000 0.000000
v 0.750000 -0.250000 1.500000
v 0.750000 -0.000000 0.000000
v -0.750000 0.375000 0.000000
v 0.750000 0.375000 0.000000
v -0.750000 0.375000 1.500000
v 0.750000 0.375000 1.500000
vt 0.015625 0.171875
vt 0.390625 0.078125
vt 0.015625 0.078125
vt 0.390625 0.171875
vt 0.015625 0.015625
vt 0.390625 0.015625
vt 0.390625 0.171875
vt 0.390625 0.015625
vt 0.015625 0.078125
vt 0.015625 0.171875
vt 0.015625 0.203125
vt 0.390625 0.578125
vt 0.015625 0.578125
vt 0.390625 0.171875
vt 0.015625 0.171875
vt 0.390625 0.203125
vn 0.0000 0.0000 -1.0000
vn 0.0000 0.0000 1.0000
vn -1.0000 0.0000 0.0000
vn 1.0000 0.0000 0.0000
vn 0.0000 1.0000 0.0000
s off
f 13/18/6 12/19/6 10/20/6
f 16/21/7 9/22/7 11/23/7
f 15/24/8 10/20/8 9/25/8
f 16/21/9 12/26/9 14/27/9
f 15/28/10 14/29/10 13/30/10
f 13/18/6 14/31/6 12/19/6
f 16/21/7 15/32/7 9/22/7
f 15/24/8 13/18/8 10/20/8
f 16/21/9 11/23/9 12/26/9
f 15/28/10 16/33/10 14/29/10
o base
v -0.750000 0.000000 0.750000
v -0.750000 0.375000 0.750000
v -0.750000 0.000000 -0.750000
v -0.750000 0.625000 -0.750000
v 0.750000 0.000000 0.750000
v 0.750000 0.375000 0.750000
v 0.750000 0.000000 -0.750000
v 0.750000 0.625000 -0.750000
v -0.313701 0.515173 0.316147
v -0.313701 0.540871 -0.314077
v -0.313701 0.438002 0.303289
v -0.313701 0.618041 -0.301218
v 0.312176 0.540871 -0.314077
v 0.312176 0.618041 -0.301218
v 0.312176 0.438002 0.303289
v 0.312176 0.515173 0.316147
v -0.235467 0.605183 -0.224048
v 0.233941 0.528012 -0.236906
v 0.233941 0.605183 -0.224048
v -0.235467 0.528031 0.238976
v 0.233941 0.528031 0.238976
v 0.233941 0.450861 0.226118
v -0.235467 0.528012 -0.236906
v -0.235467 0.450861 0.226118
vt 0.781250 0.828125
vt 0.406250 0.984375
vt 0.406250 0.828125
vt 0.781250 0.984375
vt 0.406250 0.828125
vt 0.781250 0.828125
vt 0.406250 0.984375
vt 0.781250 0.828125
vt 0.781250 0.921875
vt 0.406250 0.828125
vt 0.390625 0.609375
vt 0.015625 0.984375
vt 0.015625 0.609375
vt 0.593750 0.625000
vt 0.750000 0.609375
vt 0.593750 0.609375
vt 0.593750 0.625000
vt 0.750000 0.609375
vt 0.593750 0.609375
vt 0.750000 0.625000
vt 0.593750 0.609375
vt 0.750000 0.625000
vt 0.750000 0.609375
vt 0.609375 0.593750
vt 0.734375 0.578125
vt 0.734375 0.593750
vt 0.609375 0.781250
vt 0.593750 0.640625
vt 0.609375 0.656250
vt 0.734375 0.781250
vt 0.593750 0.796875
vt 0.734375 0.656250
vt 0.750000 0.796875
vt 0.750000 0.640625
vt 0.609375 0.578125
vt 0.609375 0.593750
vt 0.609375 0.593750
vt 0.734375 0.578125
vt 0.734375 0.593750
vt 0.734375 0.593750
vt 0.609375 0.578125
vt 0.750000 0.625000
vt 0.593750 0.625000
vt 0.609375 0.578125
vt 0.734375 0.578125
vt 0.781250 0.921875
vt 0.406250 0.921875
vt 0.390625 0.984375
vn -1.0000 0.0000 0.0000
vn 0.0000 -0.0000 -1.0000
vn 1.0000 0.0000 0.0000
vn 0.0000 0.0000 1.0000
vn 0.0000 0.9864 0.1644
vn 0.0000 0.1644 -0.9864
vn 0.0000 -0.1644 0.9864
s off
f 17/34/11 20/35/11 19/36/11
f 20/37/12 23/38/12 19/39/12
f 24/40/13 21/41/13 23/38/13
f 22/42/14 17/43/14 21/41/14
f 20/44/15 22/45/15 24/46/15
f 25/47/11 26/48/11 27/49/11
f 28/50/16 29/51/16 26/52/16
f 30/53/13 31/54/13 29/51/13
f 32/55/17 27/49/17 31/56/17
f 33/57/17 34/58/17 35/59/17
f 33/60/15 25/61/15 36/62/15
f 35/63/15 28/64/15 33/60/15
f 37/65/15 30/66/15 35/63/15
f 36/62/15 32/67/15 37/65/15
f 35/59/11 38/68/11 37/69/11
f 36/70/13 39/71/13 33/72/13
f 37/73/16 40/74/16 36/70/16
f 25/47/11 28/75/11 26/48/11
f 28/50/16 30/53/16 29/51/16
f 30/53/13 32/76/13 31/54/13
f 32/55/17 25/47/17 27/49/17
f 33/57/17 39/77/17 34/58/17
f 33/60/15 28/64/15 25/61/15
f 35/63/15 30/66/15 28/64/15
f 37/65/15 32/67/15 30/66/15
f 36/62/15 25/61/15 32/67/15
f 35/59/11 34/58/11 38/68/11
f 36/70/13 40/74/13 39/71/13
f 37/73/16 38/78/16 40/74/16
f 17/34/11 18/79/11 20/35/11
f 20/37/12 24/40/12 23/38/12
f 24/40/13 22/42/13 21/41/13
f 22/42/14 18/80/14 17/43/14
f 20/44/15 18/81/15 22/45/15
o btn_top
v 0.233941 0.528031 0.238976
v -0.235467 0.682373 0.264694
v -0.235467 0.528031 0.238976
v -0.235467 0.605183 -0.224048
v 0.233941 0.759524 -0.198330
v 0.233941 0.605183 -0.224048
v 0.233941 0.682373 0.264694
v -0.235467 0.759524 -0.198330
v -0.352819 0.817426 0.406167
v 0.390410 0.656656 0.419035
v 0.351293 0.817426 0.406167
v 0.351293 0.933153 -0.288369
v 0.390410 0.785241 -0.352672
v -0.391936 0.785241 -0.352672
v -0.391936 0.656656 0.419035
v -0.352819 0.933153 -0.288369
vt 0.500000 0.765625
vt 0.468750 0.734375
vt 0.500000 0.734375
vt 0.500000 0.765625
vt 0.468750 0.734375
vt 0.500000 0.734375
vt 0.500000 0.765625
vt 0.468750 0.734375
vt 0.500000 0.734375
vt 0.500000 0.765625
vt 0.468750 0.734375
vt 0.500000 0.734375
vt 0.500000 0.765625
vt 0.468750 0.703125
vt 0.500000 0.703125
vt 0.500000 0.703125
vt 0.468750 0.765625
vt 0.468750 0.703125
vt 0.468750 0.703125
vt 0.500000 0.765625
vt 0.468750 0.765625
vt 0.500000 0.703125
vt 0.468750 0.765625
vt 0.468750 0.703125
vt 0.500000 0.703125
vt 0.468750 0.765625
vt 0.468750 0.765625
vt 0.468750 0.765625
vt 0.468750 0.765625
vt 0.468750 0.765625
vt 0.500000 0.765625
vt 0.500000 0.703125
vt 0.500000 0.765625
vt 0.500000 0.765625
vn 0.0000 -0.1644 0.9864
vn 0.0000 0.1644 -0.9864
vn 1.0000 -0.0000 0.0000
vn -1.0000 -0.0000 0.0000
vn 0.0000 0.0798 0.9968
vn 0.9701 0.2392 0.0399
vn 0.0000 0.3987 -0.9171
vn -0.9701 0.2392 0.0399
vn 0.0000 -0.9864 -0.1644
s 1
f 41/82/18 42/83/18 43/84/18
f 44/85/19 45/86/19 46/87/19
f 46/88/20 47/89/20 41/90/20
f 43/91/21 48/92/21 44/93/21
f 49/94/22 50/95/22 51/96/22
f 52/97/23 50/98/23 53/99/23
f 54/100/24 52/101/24 53/102/24
f 49/103/25 54/104/25 55/105/25
f 53/106/26 55/107/26 54/100/26
f 41/82/18 47/108/18 42/83/18
f 44/85/19 48/109/19 45/86/19
f 46/88/20 45/110/20 47/89/20
f 43/91/21 42/111/21 48/92/21
f 49/94/22 55/107/22 50/95/22
f 52/97/23 51/112/23 50/98/23
f 54/100/24 56/113/24 52/101/24
f 49/103/25 56/114/25 54/104/25
f 53/106/26 50/115/26 55/107/26
o btn_top_top
v -0.352819 0.933153 -0.288369
v 0.351293 0.817426 0.406167
v 0.351293 0.933153 -0.288369
v -0.352819 0.817426 0.406167
vt 0.562500 0.656250
vt 0.421875 0.796875
vt 0.421875 0.656250
vt 0.562500 0.796875
vn 0.0000 0.9864 0.1644
s 1
f 57/116/27 58/117/27 59/118/27
f 57/116/27 60/119/27 58/117/27
