# Blender v3.1.2 OBJ File: 'button_push_2.blend'
# www.blender.org
o base
v -0.500000 0.000000 0.500000
v -0.500000 0.125000 0.500000
v -0.500000 0.000000 -0.500000
v -0.500000 0.125000 -0.500000
v 0.500000 0.000000 0.500000
v 0.500000 0.125000 0.500000
v 0.500000 0.000000 -0.500000
v 0.500000 0.125000 -0.500000
vt 0.031250 0.968750
vt 0.531250 0.906250
vt 0.031250 0.906250
vt 0.531250 0.968750
vt 0.031250 0.906250
vt 0.531250 0.968750
vt 0.031250 0.906250
vt 0.531250 0.906250
vt 0.531250 0.968750
vt 0.531250 0.906250
vt 0.531250 0.343750
vt 0.031250 0.843750
vt 0.031250 0.343750
vt 0.031250 0.968750
vt 0.031250 0.968750
vt 0.531250 0.843750
vn -1.0000 0.0000 0.0000
vn 0.0000 0.0000 -1.0000
vn 1.0000 0.0000 0.0000
vn 0.0000 0.0000 1.0000
vn 0.0000 1.0000 0.0000
s off
f 2/1/1 3/2/1 1/3/1
f 4/4/2 7/5/2 3/2/2
f 8/6/3 5/7/3 7/8/3
f 6/9/4 1/3/4 5/10/4
f 4/11/5 6/12/5 8/13/5
f 2/1/1 4/4/1 3/2/1
f 4/4/2 8/14/2 7/5/2
f 8/6/3 6/15/3 5/7/3
f 6/9/4 2/1/4 1/3/4
f 4/11/5 2/16/5 6/12/5
o btn_base
v -0.250000 0.125000 0.250000
v -0.187500 0.187500 0.187500
v -0.250000 0.125000 -0.250000
v -0.187500 0.187500 -0.187500
v 0.250000 0.125000 0.250000
v 0.187500 0.187500 0.187500
v 0.250000 0.125000 -0.250000
v 0.187500 0.187500 -0.187500
v -0.250000 0.187500 0.250000
v -0.250000 0.187500 -0.250000
v 0.250000 0.187500 -0.250000
v 0.250000 0.187500 0.250000
v -0.187500 0.125000 0.187500
v -0.187500 0.125000 -0.187500
v 0.187500 0.125000 0.187500
v 0.187500 0.125000 -0.187500
vt 0.593750 0.625000
vt 0.906250 0.593750
vt 0.593750 0.593750
vt 0.593750 0.625000
vt 0.906250 0.593750
vt 0.593750 0.593750
vt 0.906250 0.625000
vt 0.593750 0.593750
vt 0.906250 0.625000
vt 0.906250 0.593750
vt 0.625000 0.562500
vt 0.875000 0.531250
vt 0.875000 0.562500
vt 0.625000 0.937500
vt 0.593750 0.656250
vt 0.625000 0.687500
vt 0.875000 0.937500
vt 0.593750 0.968750
vt 0.875000 0.687500
vt 0.906250 0.968750
vt 0.906250 0.656250
vt 0.625000 0.531250
vt 0.625000 0.562500
vt 0.625000 0.562500
vt 0.875000 0.531250
vt 0.875000 0.562500
vt 0.875000 0.562500
vt 0.625000 0.531250
vt 0.906250 0.625000
vt 0.593750 0.625000
vt 0.625000 0.531250
vt 0.875000 0.531250
vn -1.0000 0.0000 0.0000
vn 0.0000 0.0000 -1.0000
vn 1.0000 0.0000 0.0000
vn 0.0000 0.0000 1.0000
vn 0.0000 1.0000 0.0000
s off
f 17/17/6 11/18/6 9/19/6
f 18/20/7 15/21/7 11/22/7
f 19/23/8 13/24/8 15/21/8
f 20/25/9 9/19/9 13/26/9
f 12/27/9 24/28/9 16/29/9
f 12/30/10 17/31/10 10/32/10
f 16/33/10 18/34/10 12/30/10
f 14/35/10 19/36/10 16/33/10
f 10/32/10 20/37/10 14/35/10
f 16/29/6 23/38/6 14/39/6
f 10/40/8 22/41/8 12/42/8
f 14/43/7 21/44/7 10/40/7
f 17/17/6 18/45/6 11/18/6
f 18/20/7 19/23/7 15/21/7
f 19/23/8 20/46/8 13/24/8
f 20/25/9 17/17/9 9/19/9
f 12/27/9 22/47/9 24/28/9
f 12/30/10 18/34/10 17/31/10
f 16/33/10 19/36/10 18/34/10
f 14/35/10 20/37/10 19/36/10
f 10/32/10 17/31/10 20/37/10
f 16/29/6 24/28/6 23/38/6
f 10/40/8 21/44/8 22/41/8
f 14/43/7 23/48/7 21/44/7
o btn_top
v -0.187500 0.187500 0.187500
v -0.187500 0.187500 -0.187500
v 0.187500 0.187500 0.187500
v 0.187500 0.187500 -0.187500
v -0.187500 0.312500 0.187500
v -0.187500 0.312500 -0.187500
v 0.187500 0.312500 -0.187500
v 0.187500 0.312500 0.187500
v -0.281250 0.437500 -0.281250
v -0.312500 0.312500 -0.312500
v 0.312500 0.312500 -0.312500
v 0.281250 0.437500 -0.281250
v -0.312500 0.312500 0.312500
v -0.281250 0.437500 0.281250
v 0.281250 0.437500 0.281250
v 0.312500 0.312500 0.312500
vt 0.906250 0.468750
vt 0.875000 0.406250
vt 0.906250 0.406250
vt 0.906250 0.468750
vt 0.875000 0.406250
vt 0.906250 0.406250
vt 0.906250 0.468750
vt 0.875000 0.406250
vt 0.906250 0.406250
vt 0.906250 0.468750
vt 0.875000 0.406250
vt 0.906250 0.406250
vt 0.906250 0.468750
vt 0.875000 0.343750
vt 0.906250 0.343750
vt 0.906250 0.343750
vt 0.875000 0.468750
vt 0.875000 0.343750
vt 0.875000 0.343750
vt 0.906250 0.468750
vt 0.875000 0.468750
vt 0.906250 0.343750
vt 0.875000 0.468750
vt 0.875000 0.343750
vt 0.906250 0.343750
vt 0.875000 0.468750
vt 0.875000 0.468750
vt 0.875000 0.468750
vt 0.875000 0.468750
vt 0.875000 0.468750
vt 0.906250 0.468750
vt 0.906250 0.343750
vt 0.906250 0.468750
vt 0.906250 0.468750
vn 0.0000 0.0000 1.0000
vn 0.0000 0.0000 -1.0000
vn 1.0000 0.0000 0.0000
vn -1.0000 0.0000 0.0000
vn 0.0000 0.2425 0.9701
vn 0.9701 0.2425 0.0000
vn 0.0000 0.2425 -0.9701
vn -0.9701 0.2425 0.0000
vn 0.0000 -1.0000 0.0000
s off
f 27/49/11 29/50/11 25/51/11
f 26/52/12 31/53/12 28/54/12
f 28/55/13 32/56/13 27/57/13
f 25/58/14 30/59/14 26/60/14
f 38/61/15 40/62/15 39/63/15
f 36/64/16 40/65/16 35/66/16
f 34/67/17 36/68/17 35/69/17
f 38/70/18 34/71/18 37/72/18
f 35/73/19 37/74/19 34/67/19
f 27/49/11 32/75/11 29/50/11
f 26/52/12 30/76/12 31/53/12
f 28/55/13 31/77/13 32/56/13
f 25/58/14 29/78/14 30/59/14
f 38/61/15 37/74/15 40/62/15
f 36/64/16 39/79/16 40/65/16
f 34/67/17 33/80/17 36/68/17
f 38/70/18 33/81/18 34/71/18
f 35/73/19 40/82/19 37/74/19
o btn_top_top
v -0.281250 0.437500 -0.281250
v 0.281250 0.437500 -0.281250
v -0.281250 0.437500 0.281250
v 0.281250 0.437500 0.281250
vt 0.875000 0.218750
vt 0.656250 0.437500
vt 0.656250 0.218750
vt 0.875000 0.437500
vn 0.0000 1.0000 0.0000
s off
f 41/83/20 44/84/20 42/85/20
f 41/83/20 43/86/20 44/84/20
