# Blender v3.1.2 OBJ File: 'dial_square.blend'
# www.blender.org
o dial
v 0.000000 0.072342 -0.160817
v 0.000000 0.087658 -0.160817
v 0.113715 0.072342 -0.113715
v 0.113715 0.087658 -0.113715
v 0.160817 0.072342 0.000000
v 0.160817 0.087658 0.000000
v 0.113715 0.072342 0.113715
v 0.113715 0.087658 0.113715
v -0.000000 0.072342 0.160817
v -0.000000 0.087658 0.160817
v -1.610365 0.072342 0.003081
v -1.610365 0.087658 0.003081
v -1.610148 0.072342 -0.020989
v -1.610148 0.087658 -0.020989
vt 0.468750 0.375000
vt 0.453125 0.312500
vt 0.468750 0.312500
vt 0.453125 0.375000
vt 0.437500 0.312500
vt 0.437500 0.375000
vt 0.421875 0.312500
vt 0.421875 0.375000
vt 0.406250 0.312500
vt 0.390625 0.265625
vt 0.406250 0.281250
vt 0.375000 0.312500
vt 0.468750 0.265625
vt 0.437500 0.265625
vt 0.468750 0.296875
vt 0.375000 0.375000
vt 0.406250 0.375000
vt 0.343750 0.375000
vt 0.359375 0.312500
vt 0.359375 0.375000
vt 0.375000 0.312500
vt 0.390625 0.296875
vt 0.359375 0.296875
vt 0.343750 0.281250
vt 0.375000 0.265625
vt 0.421875 0.296875
vt 0.437500 0.312500
vt 0.406250 0.281250
vt 0.468750 0.281250
vt 0.343750 0.312500
vn 0.3827 0.0000 -0.9239
vn 0.9239 0.0000 -0.3827
vn 0.9239 0.0000 0.3827
vn 0.3827 0.0000 0.9239
vn 0.0000 1.0000 0.0000
vn 0.0000 -1.0000 0.0000
vn -0.0975 0.0000 0.9952
vn -0.0865 0.0000 -0.9963
vn -1.0000 0.0000 -0.0090
s off
f 2/1/1 3/2/1 1/3/1
f 4/4/2 5/5/2 3/2/2
f 6/6/3 7/7/3 5/5/3
f 8/8/4 9/9/4 7/7/4
f 8/10/5 6/11/5 2/12/5
f 7/13/6 9/14/6 3/15/6
f 12/16/7 9/9/7 10/17/7
f 2/18/8 13/19/8 14/20/8
f 14/20/9 11/21/9 12/16/9
f 2/1/1 4/4/1 3/2/1
f 4/4/2 6/6/2 5/5/2
f 6/6/3 8/8/3 7/7/3
f 8/8/4 10/17/4 9/9/4
f 6/11/5 4/22/5 2/12/5
f 2/12/5 14/23/5 12/24/5
f 12/24/5 10/25/5 2/12/5
f 10/25/5 8/10/5 2/12/5
f 13/26/6 1/27/6 11/28/6
f 1/27/6 3/15/6 9/14/6
f 11/28/6 1/27/6 9/14/6
f 3/15/6 5/29/6 7/13/6
f 12/16/7 11/21/7 9/9/7
f 2/18/8 1/30/8 13/19/8
f 14/20/9 13/19/9 11/21/9
o base
v 0.875000 0.121135 0.687500
v 0.875000 -0.066365 0.687500
v 0.875000 0.121135 0.875000
v 0.875000 -0.066365 0.875000
v 0.687500 0.121135 0.687500
v 0.687500 -0.066365 0.687500
v 0.687500 0.121135 0.875000
v 0.687500 -0.066365 0.875000
v -1.125000 -0.000000 1.125000
v -1.000000 0.125000 1.000000
v -1.125000 -0.000000 -1.125000
v -1.000000 0.125000 -1.000000
v 1.125000 -0.000000 1.125000
v 1.000000 0.125000 1.000000
v 1.125000 -0.000000 -1.125000
v 1.000000 0.125000 -1.000000
v -1.125000 0.125000 1.125000
v -1.125000 0.125000 -1.125000
v 1.125000 0.125000 -1.125000
v 1.125000 0.125000 1.125000
v -1.000000 0.062500 1.000000
v -1.000000 0.062500 -1.000000
v 1.000000 0.062500 -1.000000
v 1.000000 0.062500 1.000000
v 1.069002 0.048847 0.414800
v 1.069002 0.102415 0.414800
v 0.429629 0.048847 1.061684
v 0.429629 0.102415 1.061684
v 0.456583 0.048847 0.819102
v 0.456583 0.102415 0.819102
v 0.591350 0.048847 0.603474
v 0.591350 0.102415 0.603474
v 0.780025 0.048847 0.468707
v 0.780025 0.102415 0.468707
v 1.069002 0.102415 1.061684
vt 0.437500 0.062500
vt 0.406250 0.093750
vt 0.406250 0.062500
vt 0.437500 0.093750
vt 0.406250 0.125000
vt 0.406250 0.093750
vt 0.437500 0.125000
vt 0.406250 0.156250
vt 0.406250 0.125000
vt 0.437500 0.156250
vt 0.406250 0.187500
vt 0.406250 0.156250
vt 0.406250 0.125000
vt 0.375000 0.156250
vt 0.375000 0.125000
vt 0.468750 0.125000
vt 0.437500 0.156250
vt 0.437500 0.125000
vt 0.015625 0.984375
vt 0.515625 0.953125
vt 0.015625 0.953125
vt 0.515625 0.984375
vt 0.015625 0.953125
vt 0.515625 0.984375
vt 0.015625 0.953125
vt 0.515625 0.953125
vt 0.515625 0.984375
vt 0.515625 0.953125
vt 0.968750 0.968750
vt 0.984375 0.984375
vt 0.968750 0.968750
vt 0.515625 0.437500
vt 0.546875 0.937500
vt 0.515625 0.906250
vt 0.046875 0.437500
vt 0.546875 0.406250
vt 0.046875 0.906250
vt 0.015625 0.406250
vt 0.015625 0.937500
vt 0.515625 0.437500
vt 0.046875 0.906250
vt 0.046875 0.437500
vt 0.546875 0.968750
vt 0.531250 0.984375
vt 0.546875 0.968750
vt 0.984375 0.984375
vt 0.531250 0.984375
vt 0.937500 0.734375
vt 0.906250 0.468750
vt 0.937500 0.468750
vt 0.906250 0.734375
vt 0.875000 0.468750
vt 0.875000 0.734375
vt 0.828125 0.468750
vt 0.828125 0.734375
vt 0.796875 0.468750
vt 0.843750 0.437500
vt 0.828125 0.406250
vt 0.937500 0.359375
vt 0.437500 0.093750
vt 0.437500 0.125000
vt 0.437500 0.156250
vt 0.437500 0.187500
vt 0.406250 0.156250
vt 0.468750 0.156250
vt 0.015625 0.984375
vt 0.015625 0.984375
vt 0.515625 0.906250
vt 0.796875 0.734375
vt 0.828125 0.359375
vt 0.937500 0.453125
vt 0.875000 0.453125
vn 0.0000 1.0000 0.0000
vn 0.0000 -1.0000 0.0000
vn 0.0000 0.0000 1.0000
vn 1.0000 0.0000 0.0000
vn 0.0000 0.0000 -1.0000
vn -1.0000 0.0000 0.0000
vn -0.9939 0.0000 -0.1104
vn -0.8480 0.0000 -0.5300
vn -0.5812 0.0000 -0.8137
vn -0.1834 0.0000 -0.9830
s off
f 19/31/10 17/32/10 15/33/10
f 16/34/11 22/35/11 20/36/11
f 17/37/12 22/38/12 18/39/12
f 15/40/13 18/41/13 16/42/13
f 19/43/14 16/44/14 20/45/14
f 21/46/15 20/47/15 22/48/15
f 31/49/15 25/50/15 23/51/15
f 32/52/14 29/53/14 25/50/14
f 33/54/13 27/55/13 29/56/13
f 34/57/12 23/51/12 27/58/12
f 28/59/14 35/60/14 24/61/14
f 26/62/10 31/63/10 24/64/10
f 30/65/10 32/66/10 26/62/10
f 28/67/10 33/68/10 30/65/10
f 28/67/10 31/63/10 34/69/10
f 36/70/10 38/71/10 37/72/10
f 26/73/12 37/74/12 30/75/12
f 30/75/15 38/76/15 28/59/15
f 24/61/13 36/77/13 26/73/13
f 42/78/16 43/79/16 41/80/16
f 44/81/17 45/82/17 43/79/17
f 46/83/18 47/84/18 45/82/18
f 48/85/19 39/86/19 47/84/19
f 46/87/10 44/88/10 49/89/10
f 19/31/10 21/90/10 17/32/10
f 16/34/11 18/91/11 22/35/11
f 17/37/12 21/92/12 22/38/12
f 15/40/13 17/93/13 18/41/13
f 19/43/14 15/94/14 16/44/14
f 21/46/15 19/95/15 20/47/15
f 31/49/15 32/52/15 25/50/15
f 32/52/14 33/96/14 29/53/14
f 33/54/13 34/97/13 27/55/13
f 34/57/12 31/49/12 23/51/12
f 28/59/14 38/76/14 35/60/14
f 26/62/10 32/66/10 31/63/10
f 30/65/10 33/68/10 32/66/10
f 28/67/10 34/69/10 33/68/10
f 28/67/10 24/64/10 31/63/10
f 36/70/10 35/98/10 38/71/10
f 26/73/12 36/77/12 37/74/12
f 30/75/15 37/74/15 38/76/15
f 24/61/13 35/60/13 36/77/13
f 42/78/16 44/81/16 43/79/16
f 44/81/17 46/83/17 45/82/17
f 46/83/18 48/85/18 47/84/18
f 48/85/19 40/99/19 39/86/19
f 42/100/10 49/89/10 44/88/10
f 49/89/10 40/101/10 48/102/10
f 46/87/10 49/89/10 48/102/10
