# Blender v3.1.2 OBJ File: 'dial2.blend'
# www.blender.org
o base
v -1.000000 -0.062500 1.000000
v -1.000000 0.062500 1.000000
v -1.000000 -0.062500 -1.000000
v -1.000000 0.062500 -1.000000
v 1.000000 -0.062500 1.000000
v 1.000000 0.062500 1.000000
v 1.000000 -0.062500 -1.000000
v 1.000000 0.062500 -1.000000
vt 0.015625 0.984375
vt 0.515625 0.953125
vt 0.015625 0.953125
vt 0.015625 0.984375
vt 0.515625 0.953125
vt 0.015625 0.953125
vt 0.515625 0.984375
vt 0.015625 0.953125
vt 0.515625 0.984375
vt 0.515625 0.953125
vt 0.015625 0.921875
vt 0.515625 0.421875
vt 0.515625 0.921875
vt 0.515625 0.984375
vt 0.015625 0.984375
vt 0.015625 0.421875
vn -1.0000 0.0000 0.0000
vn 0.0000 0.0000 -1.0000
vn 1.0000 0.0000 0.0000
vn 0.0000 0.0000 1.0000
vn 0.0000 1.0000 0.0000
s off
f 2/1/1 3/2/1 1/3/1
f 4/4/2 7/5/2 3/6/2
f 8/7/3 5/8/3 7/5/3
f 6/9/4 1/3/4 5/10/4
f 4/11/5 6/12/5 8/13/5
f 2/1/1 4/14/1 3/2/1
f 4/4/2 8/7/2 7/5/2
f 8/7/3 6/15/3 5/8/3
f 6/9/4 2/1/4 1/3/4
f 4/11/5 2/16/5 6/12/5
o knob
v 0.470667 0.144964 0.000000
v 0.332812 0.144964 -0.332812
v -0.332812 0.144964 -0.332812
v -0.470667 0.061864 -0.000000
v -0.470667 0.144964 0.000000
v -0.332812 0.144964 0.332812
v 0.000000 0.144964 0.470667
v 0.000000 0.144964 -0.470667
v 0.332812 0.144964 0.332812
v 0.000000 0.061864 0.470667
v 0.470667 0.061864 -0.000000
v 0.000000 0.061864 -0.470667
v -0.332812 0.061864 -0.332812
v -0.332812 0.061864 0.332812
v 0.332812 0.061864 0.332812
v 0.332812 0.061864 -0.332812
v 0.062500 0.571514 0.554348
v 0.000000 0.311814 0.579198
v 0.062500 0.311814 0.554348
v 0.062500 0.571514 -0.241145
v 0.062500 0.311814 -0.550665
v -0.062500 0.311814 0.554348
v -0.062500 0.571514 -0.241145
v -0.062500 0.311814 -0.550665
v 0.000000 0.571514 0.579198
v 0.000000 0.571514 -0.267806
v 0.000000 0.311814 -0.577327
v -0.062500 0.571514 0.554348
v 0.000000 0.146983 -0.581250
v 0.000000 0.313864 -0.581250
v 0.411006 0.146983 -0.411006
v 0.411006 0.313864 -0.411006
v 0.581250 0.146983 0.000000
v 0.581250 0.313864 0.000000
v 0.411006 0.146983 0.411006
v 0.411006 0.313864 0.411006
v -0.000000 0.146983 0.581250
v -0.000000 0.313864 0.581250
v -0.411006 0.146983 0.411006
v -0.411006 0.313864 0.411006
v -0.581250 0.146983 -0.000000
v -0.581250 0.313864 -0.000000
v -0.411006 0.146983 -0.411006
v -0.411006 0.313864 -0.411006
vt 0.156250 0.031250
vt 0.250000 0.062500
vt 0.296875 0.156250
vt 0.062500 0.062500
vt 0.015625 0.156250
vt 0.062500 0.265625
vt 0.250000 0.265625
vt 0.015625 0.156250
vt 0.156250 0.296875
vt 0.062500 0.265625
vt 0.062500 0.062500
vt 0.156250 0.296875
vt 0.250000 0.062500
vt 0.250000 0.265625
vt 0.296875 0.156250
vt 0.156250 0.031250
vt 0.359375 0.312500
vt 0.453125 0.328125
vt 0.359375 0.328125
vt 0.359375 0.312500
vt 0.453125 0.328125
vt 0.359375 0.328125
vt 0.453125 0.312500
vt 0.453125 0.328125
vt 0.453125 0.312500
vt 0.359375 0.328125
vt 0.453125 0.328125
vt 0.453125 0.312500
vt 0.453125 0.312500
vt 0.359375 0.328125
vt 0.531250 0.296875
vt 0.546875 0.250000
vt 0.531250 0.250000
vt 0.046875 0.187500
vt 0.046875 0.140625
vt 0.046875 0.187500
vt 0.015625 0.187500
vt 0.046875 0.140625
vt 0.828125 0.078125
vt 0.578125 0.015625
vt 0.828125 0.015625
vt 0.578125 0.015625
vt 0.828125 0.078125
vt 0.828125 0.015625
vt 0.546875 0.021714
vt 0.515625 0.234375
vt 0.515625 0.021714
vt 0.546875 0.218750
vt 0.531250 0.234375
vt 0.515625 0.218750
vt 0.515625 0.250000
vt 0.578125 0.078125
vt 0.578125 0.078125
vt 0.359375 0.312500
vt 0.531250 0.015625
vt 0.359375 0.312500
vt 0.343750 0.312500
vt 0.359375 0.281250
vt 0.453125 0.359375
vt 0.203125 0.390625
vt 0.187500 0.328125
vt 0.203125 0.328125
vt 0.187500 0.390625
vt 0.171875 0.328125
vt 0.171875 0.390625
vt 0.156250 0.328125
vt 0.156250 0.390625
vt 0.140625 0.328125
vt 0.140625 0.390625
vt 0.125000 0.328125
vt 0.125000 0.390625
vt 0.109375 0.328125
vt 0.109375 0.390625
vt 0.093750 0.328125
vt 0.078125 0.390625
vt 0.078125 0.328125
vt 0.546875 0.296875
vt 0.015625 0.140625
vt 0.546875 0.234375
vt 0.515625 0.296875
vt 0.406250 0.265625
vt 0.453125 0.281250
vt 0.468750 0.312500
vt 0.406250 0.375000
vt 0.359375 0.359375
vt 0.093750 0.390625
vn 0.0000 1.0000 -0.0000
vn 0.0000 -1.0000 -0.0000
vn -0.3827 0.0000 0.9239
vn 0.9239 -0.0000 0.3827
vn -0.9239 0.0000 0.3827
vn -0.3827 0.0000 -0.9239
vn 0.3827 0.0000 0.9239
vn 0.9239 0.0000 -0.3827
vn 0.2644 0.7388 -0.6199
vn 0.3695 0.0000 0.9292
vn -0.3695 0.0000 0.9292
vn 1.0000 0.0000 0.0000
vn -1.0000 0.0000 0.0000
vn -0.2644 0.7388 -0.6199
vn 0.3827 0.0000 -0.9239
vn -0.9239 0.0000 -0.3827
vn 0.0000 0.0000 -1.0000
vn 0.7071 0.0000 -0.7071
vn 0.7071 0.0000 0.7071
vn 0.0000 0.0000 1.0000
vn -0.7071 0.0000 0.7071
vn -0.7071 0.0000 -0.7071
s off
f 46/17/6 44/18/6 42/19/6
f 47/20/7 49/21/7 51/22/7
f 42/19/6 40/23/6 50/24/6
f 40/23/6 38/25/6 50/24/6
f 38/25/6 52/26/6 50/24/6
f 50/24/6 48/27/6 42/19/6
f 48/27/6 46/17/6 42/19/6
f 51/22/7 37/28/7 43/29/7
f 37/28/7 39/30/7 43/29/7
f 39/30/7 41/31/7 43/29/7
f 43/29/7 45/32/7 51/22/7
f 45/32/7 47/20/7 51/22/7
s 1
f 22/33/8 15/34/8 14/35/8
f 23/36/9 9/37/9 17/38/9
f 12/39/10 14/35/10 13/40/10
f 20/41/11 11/42/11 16/43/11
f 18/44/12 17/38/12 15/34/12
f 19/45/13 10/46/13 9/37/13
f 34/47/14 29/48/14 35/49/14
f 33/50/15 27/51/15 25/52/15
f 36/53/16 26/54/16 33/50/16
f 28/55/17 27/56/17 29/57/17
f 30/58/18 31/59/18 32/60/18
f 25/61/6 31/62/6 36/63/6
f 28/64/6 34/65/6 31/66/6
f 32/67/19 34/47/19 35/49/19
f 28/55/17 25/68/17 27/56/17
f 30/58/18 36/69/18 31/59/18
f 24/70/20 16/43/20 10/46/20
f 36/63/6 33/71/6 25/61/6
f 21/72/21 13/40/21 11/42/21
f 13/73/7 14/74/7 10/75/7
f 38/76/22 39/77/23 37/78/22
f 40/79/23 41/80/17 39/77/23
f 42/81/17 43/82/24 41/80/17
f 44/83/24 45/84/25 43/82/24
f 46/85/25 47/86/26 45/84/25
f 48/87/26 49/88/18 47/86/26
f 50/89/18 51/90/27 49/88/18
f 51/90/27 38/91/22 37/92/22
f 22/33/8 18/44/8 15/34/8
f 23/36/9 19/45/9 9/37/9
f 12/39/10 22/33/10 14/35/10
f 20/41/11 21/72/11 11/42/11
f 18/44/12 23/36/12 17/38/12
f 19/45/13 24/70/13 10/46/13
f 34/47/14 28/93/14 29/48/14
f 33/50/15 26/54/15 27/51/15
f 36/53/16 30/94/16 26/54/16
f 25/61/6 28/95/6 31/62/6
f 32/67/19 31/96/19 34/47/19
f 24/70/20 20/41/20 16/43/20
f 21/72/21 12/39/21 13/40/21
f 14/74/7 15/97/7 17/98/7
f 17/98/7 9/99/7 14/74/7
f 9/99/7 10/75/7 14/74/7
f 10/75/7 16/100/7 11/101/7
f 11/101/7 13/73/7 10/75/7
f 38/76/22 40/79/23 39/77/23
f 40/79/23 42/81/17 41/80/17
f 42/81/17 44/83/24 43/82/24
f 44/83/24 46/85/25 45/84/25
f 46/85/25 48/87/26 47/86/26
f 48/87/26 50/89/18 49/88/18
f 50/89/18 52/102/27 51/90/27
f 51/90/27 52/102/27 38/91/22
