# Blender v2.93.4 OBJ File: ''
# www.blender.org
mtllib conveyor_material.mtl
o o1
v 0.25 0 0
v 0 0 0
v 0 1 0
v 0.25 1 0
v 0.25 -0 0.25
v 0.25 1 0.25
v 0 -0 0.25
v 0 1 0.25
vt 0.25 0
vt 0.5 0
vt 0.5 1
vt 0.25 1
vt 0 0
vt 0 1
vt 0.75 0
vt 1 0
vt 1 1
vt 0.75 1
vt 0 0.75
vt 0.25 0.75
vt 0 1
vt 0 0.75
vt 0.25 0.75
vt 0.25 1
vt 0 1
vn 0 0 -1
vn 1 0 0
vn 0 -0 1
vn -1 0 0
vn 0 1 0
vn 0 -1 -0
usemtl m_concrete
s 1
f 1/1/1 2/2/1 3/3/1 4/4/1
f 5/5/2 1/1/2 4/4/2 6/6/2
f 7/7/3 5/8/3 6/9/3 8/10/3
f 2/2/4 7/7/4 8/10/4 3/3/4
f 8/11/5 6/12/5 4/4/5 3/13/5
f 2/14/6 1/15/6 5/16/6 7/17/6
o o2
v 1 0 0
v 0.75 0 0
v 0.75 1 0
v 1 1 0
v 1 -0 0.25
v 1 1 0.25
v 0.75 -0 0.25
v 0.75 1 0.25
vt 0.25 0
vt 0.5 0
vt 0.5 1
vt 0.25 1
vt 0 0
vt 0 1
vt 0.75 0
vt 1 0
vt 1 1
vt 0.75 1
vt 0 0.75
vt 0.25 0.75
vt 0 1
vt 0 0.75
vt 0.25 0.75
vt 0.25 1
vt 0 1
vn 0 0 -1
vn 1 0 0
vn 0 -0 1
vn -1 -0 0
vn 0 1 0
vn 0 -1 -0
usemtl m_concrete
s 1
f 9/18/7 10/19/7 11/20/7 12/21/7
f 13/22/8 9/18/8 12/21/8 14/23/8
f 15/24/9 13/25/9 14/26/9 16/27/9
f 10/19/10 15/24/10 16/27/10 11/20/10
f 16/28/11 14/29/11 12/21/11 11/30/11
f 10/31/12 9/32/12 13/33/12 15/34/12
o o3
v 1 -0 0.75
v 0.75 -0 0.75
v 0.75 1 0.75
v 1 1 0.75
v 1 -0 1
v 1 1 1
v 0.75 -0 1
v 0.75 1 1
vt 0.25 0
vt 0.5 0
vt 0.5 1
vt 0.25 1
vt 0 0
vt 0 1
vt 0.75 0
vt 1 0
vt 1 1
vt 0.75 1
vt 0 0.75
vt 0.25 0.75
vt 0 1
vt 0 0.75
vt 0.25 0.75
vt 0.25 1
vt 0 1
vn 0 0 -1
vn 1 0 0
vn 0 -0 1
vn -1 0 0
vn 0 1 0
vn 0 -1 -0
usemtl m_concrete
s 1
f 17/35/13 18/36/13 19/37/13 20/38/13
f 21/39/14 17/35/14 20/38/14 22/40/14
f 23/41/15 21/42/15 22/43/15 24/44/15
f 18/36/16 23/41/16 24/44/16 19/37/16
f 24/45/17 22/46/17 20/38/17 19/47/17
f 18/48/18 17/49/18 21/50/18 23/51/18
o o4
v 0.25 -0 0.75
v 0 -0 0.75
v 0 1 0.75
v 0.25 1 0.75
v 0.25 -0 1
v 0.25 1 1
v 0 -0 1
v 0 1 1
vt 0.25 0
vt 0.5 0
vt 0.5 1
vt 0.25 1
vt 0 0
vt 0 1
vt 0.75 0
vt 1 0
vt 1 1
vt 0.75 1
vt 0 0.75
vt 0.25 0.75
vt 0 1
vt 0 0.75
vt 0.25 0.75
vt 0.25 1
vt 0 1
vn 0 0 -1
vn 1 0 0
vn 0 -0 1
vn -1 0 0
vn 0 1 0
vn 0 -1 -0
usemtl m_concrete
s 1
f 25/52/19 26/53/19 27/54/19 28/55/19
f 29/56/20 25/52/20 28/55/20 30/57/20
f 31/58/21 29/59/21 30/60/21 32/61/21
f 26/53/22 31/58/22 32/61/22 27/54/22
f 32/62/23 30/63/23 28/55/23 27/64/23
f 26/65/24 25/66/24 29/67/24 31/68/24
o cvr
v 1 -0 0.25
v 0 -0 0.25
v 0 0.25 0.25
v 1 0.25 0.25
v 0 -0 0.75
v 1 -0 0.75
v 1 0.25 0.75
v 0 0.25 0.75
vt 0 0.75
vt 1 0.75
vt 1 1
vt 0 1
vt 0 0.75
vt 1 0.75
vt 1 1
vt 0 1
vt 0.25 0.75
vt 0.75 0.75
vt 0.75 1
vt 0.25 1
vt 0.25 0.75
vt 0.75 0.75
vt 0.75 1
vt 0.25 1
vt 0 0.25
vt 1 0.25
vt 1 0.75
vt 0 0.75
vt 0 0.25
vt 1 0.25
vn 0 0 -1
vn 0 -0 1
vn 1 0 0
vn -1 0 0
vn 0 1 0
vn 0 -1 -0
usemtl none
s 1
f 33/69/25 34/70/25 35/71/25 36/72/25
f 37/73/26 38/74/26 39/75/26 40/76/26
usemtl m_conveyor_side
f 38/77/27 33/78/27 36/79/27 39/80/27
f 34/81/28 37/82/28 40/83/28 35/84/28
usemtl m_conveyor
f 40/85/29 39/86/29 36/87/29 35/88/29
f 34/89/30 33/90/30 38/74/30 37/73/30
o cvr1
v 0.75 0 0
v 0.25 0 0
v 0.25 0.25 0
v 0.75 0.25 0
v 0.25 0.25 0.25
v 0.75 0.25 0.25
v 0.75 -0 0.25
v 0.25 -0 0.25
vt 0.25 1
vt 0.75 1
vt 0.75 0.75
vt 0.25 0.75
vt 0.25 0.75
vt 0.75 0.75
vt 0.75 1
vt 0.25 1
vt 0.25 0.75
vt 0.75 0.75
vt 0.75 1
vt 0.25 1
vt 0 0.75
vt 0.25 0.75
vt 0.25 1
vt 0 1
vt 0 0.75
vt 0.5 0.75
vt 0.5 1
vt 0 1
vt 0 0.75
vt 0.25 0.75
vt 0.25 1
vt 0 1
vn 0 0 -1
vn 0 1 0
vn 0 -1 -0
vn 1 0 0
vn 0 -0 1
vn -1 0 0
usemtl m_conveyor
s 1
f 41/91/31 42/92/31 43/93/31 44/94/31
f 45/95/32 46/96/32 44/97/32 43/98/32
f 42/99/33 41/100/33 47/101/33 48/102/33
usemtl none
f 47/103/34 41/104/34 44/105/34 46/106/34
f 48/107/35 47/108/35 46/109/35 45/110/35
f 42/111/36 48/112/36 45/113/36 43/114/36
o cvr2
v 0.75 -0 0.75
v 0.25 -0 0.75
v 0.25 0.25 0.75
v 0.75 0.25 0.75
v 0.75 -0 1
v 0.75 0.25 1
v 0.25 -0 1
v 0.25 0.25 1
vt 0 0.75
vt 0.5 0.75
vt 0.5 1
vt 0 1
vt 0 0.75
vt 0.25 0.75
vt 0.25 1
vt 0 1
vt 0 0.75
vt 0.25 0.75
vt 0.25 1
vt 0 1
vt 0.25 0
vt 0.75 0
vt 0.75 0.25
vt 0.25 0.25
vt 0.25 0
vt 0.75 0
vt 0.75 0.25
vt 0.25 0.25
vt 0.25 0
vt 0.75 0
vt 0.75 0.25
vt 0.25 0.25
vn 0 0 -1
vn 1 0 0
vn -1 0 0
vn 0 0 1
vn 0 1 0
vn 0 -1 -0
usemtl none
s 1
f 49/115/37 50/116/37 51/117/37 52/118/37
f 53/119/38 49/120/38 52/121/38 54/122/38
f 50/123/39 55/124/39 56/125/39 51/126/39
usemtl m_conveyor
f 55/127/40 53/128/40 54/129/40 56/130/40
f 56/131/41 54/132/41 52/133/41 51/134/41
f 50/135/42 49/136/42 53/137/42 55/138/42
o r2
v 0.8875 -0 0.25
v 0.8875 -0 0.25
v 0.8875 1 0.25
v 0.8875 1 0.25
v 0.8875 -0 0.75
v 0.8875 -0 0.75
v 0.8875 1 0.75
v 0.8875 1 0.75
vt 0 0
vt 0 0
vt 0 1
vt 0 1
vt 0 0
vt 0 0
vt 0 1
vt 0 1
vt 0.5 1
vt 0.5 1
vt 0 1
vt 0 1
vt 0.5 1
vt 0.5 1
vt 0.5 0
vt 0.5 1
vt 0.5 0
vn 0 0 -1
vn 0 0 1
vn 0 0 0
vn 1 0 0
vn -1 -0 0
usemtl none
s 1
f 57/139/43 58/140/43 59/141/43 60/142/43
f 61/143/44 62/144/44 63/145/44 64/146/44
f 64/147/45 63/148/45 60/142/45 59/141/45
f 58/149/45 57/150/45 62/151/45 61/152/45
usemtl m_grate_top
f 62/144/46 57/153/46 60/154/46 63/145/46
f 58/140/47 61/155/47 64/147/47 59/141/47
o r4
v 0.125 -0 0.25
v 0.125 -0 0.25
v 0.125 1 0.25
v 0.125 1 0.25
v 0.125 -0 0.75
v 0.125 -0 0.75
v 0.125 1 0.75
v 0.125 1 0.75
vt 0 0
vt 0 0
vt 0 1
vt 0 1
vt 0 0
vt 0 0
vt 0 1
vt 0 1
vt 0.5 1
vt 0.5 1
vt 0.5 1
vt 0.5 1
vt 0 1
vt 0 1
vt 0.5 0
vt 0.5 0
vt 0.5 1
vn 0 0 -1
vn 0 0 1
vn 0 0 0
vn 1 0 0
vn -1 0 0
usemtl none
s 1
f 65/156/48 66/157/48 67/158/48 68/159/48
f 69/160/49 70/161/49 71/162/49 72/163/49
f 72/163/50 71/162/50 68/164/50 67/165/50
f 66/166/50 65/167/50 70/168/50 69/169/50
usemtl m_grate_top
f 70/161/51 65/170/51 68/164/51 71/162/51
f 66/157/52 69/171/52 72/172/52 67/158/52