# Made in Blockbench 4.9.4
mtllib conveyor_material.mtl

o o2
v 1 0 0.75
v 0.75 0 0.75
v 0.75 1 0.75
v 1 1 0.75
v 1 0 1
v 1 1 1
v 0.75 0 1
v 0.75 1 1
vt 0.25 0
vt 0.5 0
vt 0.5 1
vt 0.25 1
vt 0 0
vt 0.25 0
vt 0.25 1
vt 0 1
vt 0.75 0
vt 1 0
vt 1 1
vt 0.75 1
vt 0.5 0
vt 0.75 0
vt 0.75 1
vt 0.5 1
vt 0 0.75
vt 0.25 0.75
vt 0.25 1
vt 0 1
vt 0 0.75
vt 0.25 0.75
vt 0.25 1
vt 0 1
vn 0 0 -1
vn 1 0 0
vn 0 0 1
vn -1 0 0
vn 0 1 0
vn 0 -1 0
usemtl m_concrete
f 1/1/1 2/2/1 3/3/1 4/4/1
f 5/5/2 1/6/2 4/7/2 6/8/2
f 7/9/3 5/10/3 6/11/3 8/12/3
f 2/13/4 7/14/4 8/15/4 3/16/4
f 8/17/5 6/18/5 4/19/5 3/20/5
f 2/21/6 1/22/6 5/23/6 7/24/6
o o3
v 0.25 0 0.75
v 0 0 0.75
v 0 1 0.75
v 0.25 1 0.75
v 0.25 0 1
v 0.25 1 1
v 0 0 1
v 0 1 1
vt 0.25 0
vt 0.5 0
vt 0.5 1
vt 0.25 1
vt 0 0
vt 0.25 0
vt 0.25 1
vt 0 1
vt 0.75 0
vt 1 0
vt 1 1
vt 0.75 1
vt 0.5 0
vt 0.75 0
vt 0.75 1
vt 0.5 1
vt 0 0.75
vt 0.25 0.75
vt 0.25 1
vt 0 1
vt 0 0.75
vt 0.25 0.75
vt 0.25 1
vt 0 1
vn 0 0 -1
vn 1 0 0
vn 0 0 1
vn -1 0 0
vn 0 1 0
vn 0 -1 0
usemtl m_concrete
f 9/25/7 10/26/7 11/27/7 12/28/7
f 13/29/8 9/30/8 12/31/8 14/32/8
f 15/33/9 13/34/9 14/35/9 16/36/9
f 10/37/10 15/38/10 16/39/10 11/40/10
f 16/41/11 14/42/11 12/43/11 11/44/11
f 10/45/12 9/46/12 13/47/12 15/48/12
o cvr2
v 0.75 0 0.75
v 0.25 0 0.75
v 0.25 0.25 0.75
v 0.75 0.25 0.75
v 0.75 0 1
v 0.75 0.25 1
v 0.25 0 1
v 0.25 0.25 1
vt 0 0.75
vt 0.5 0.75
vt 0.5 1
vt 0 1
vt 0 0.75
vt 0.25 0.75
vt 0.25 1
vt 0 1
vt 0 0.75
vt 0.25 0.75
vt 0.25 1
vt 0 1
vt 0.25 0.25
vt 0.75 0.25
vt 0.75 0
vt 0.25 0
vt 0.25 0.25
vt 0.75 0.25
vt 0.75 0
vt 0.25 0
vt 0.25 0
vt 0.75 0
vt 0.75 0.25
vt 0.25 0.25
vn 0 0 -1
vn 1 0 0
vn -1 0 0
vn 0 0 1
vn 0 1 0
vn 0 -1 0
usemtl none
f 17/49/13 18/50/13 19/51/13 20/52/13
f 21/53/14 17/54/14 20/55/14 22/56/14
f 18/57/15 23/58/15 24/59/15 19/60/15
usemtl m_conveyor
f 23/61/16 21/62/16 22/63/16 24/64/16
f 24/65/17 22/66/17 20/67/17 19/68/17
f 18/69/18 17/70/18 21/71/18 23/72/18
o cvr1
v 1 0 0.75
v 1 0 0.25
v 1 0.25 0.25
v 1 0.25 0.75
v 0.75 0.25 0.25
v 0.75 0.25 0.75
v 0.75 0 0.75
v 0.75 0 0.25
vt 0.25 1
vt 0.75 1
vt 0.75 0.75
vt 0.25 0.75
vt 0.25 0.75
vt 0.75 0.75
vt 0.75 1
vt 0.25 1
vt 0.25 1
vt 0.75 1
vt 0.75 0.75
vt 0.25 0.75
vt 0 0.75
vt 0.25 0.75
vt 0.25 1
vt 0 1
vt 0 0.75
vt 0.5 0.75
vt 0.5 1
vt 0 1
vt 0 0.75
vt 0.25 0.75
vt 0.25 1
vt 0 1
vn 1 0 0
vn 0 1 0
vn 0 -1 0
vn 0 0 1
vn -1 0 0
vn 0 0 -1
usemtl m_conveyor
f 25/73/19 26/74/19 27/75/19 28/76/19
f 29/77/20 30/78/20 28/79/20 27/80/20
f 26/81/21 25/82/21 31/83/21 32/84/21
usemtl none
f 31/85/22 25/86/22 28/87/22 30/88/22
f 32/89/23 31/90/23 30/91/23 29/92/23
f 26/93/24 32/94/24 29/95/24 27/96/24
o cvr3
v 0.25 0 0.75
v 0.25 0 0.25
v 0.25 0.25 0.25
v 0.25 0.25 0.75
v 0 0 0.75
v 0 0.25 0.75
v 0 0 0.25
v 0 0.25 0.25
vt 0 0.75
vt 0.5 0.75
vt 0.5 1
vt 0 1
vt 0 0.75
vt 0.25 0.75
vt 0.25 1
vt 0 1
vt 0 0.75
vt 0.25 0.75
vt 0.25 1
vt 0 1
vt 0.25 0.25
vt 0.75 0.25
vt 0.75 0
vt 0.25 0
vt 0.25 0.25
vt 0.75 0.25
vt 0.75 0
vt 0.25 0
vt 0.25 0
vt 0.75 0
vt 0.75 0.25
vt 0.25 0.25
vn 1 0 -0
vn 0 0 1
vn -0 0 -1
vn -1 0 0
vn 0 1 0
vn 0 -1 0
usemtl none
f 33/97/25 34/98/25 35/99/25 36/100/25
f 37/101/26 33/102/26 36/103/26 38/104/26
f 34/105/27 39/106/27 40/107/27 35/108/27
usemtl m_conveyor
f 39/109/28 37/110/28 38/111/28 40/112/28
f 40/113/29 38/114/29 36/115/29 35/116/29
f 34/117/30 33/118/30 37/119/30 39/120/30
o o1
v 1 1 0
v 1 1 0.25
v 1 0 0.25
v 1 0 0
v 0 0 0.25
v 0 1 0.25
v 0 1 0
v 0 0 0
vt 0.25 1
vt 0 1
vt 0 0
vt 0.25 0
vt 0.25 0
vt 0.25 1
vt 0 1
vt 0 0
vt 0 0.75
vt 1 0.75
vt 1 1
vt 0 1
vt 1 0.75
vt 1 1
vt 0 1
vt 0 0.75
vt 1 0
vt 1 1
vt 0 1
vt 0 0
vt 1 1
vt 0 1
vt 0 0
vt 1 0
vn 1 0 0
vn -1 0 0
vn 0 1 0
vn 0 -1 0
vn 0 0 1
vn 0 0 -1
usemtl m_concrete
f 41/121/31 42/122/31 43/123/31 44/124/31
f 45/125/32 46/126/32 47/127/32 48/128/32
f 46/129/33 42/130/33 41/131/33 47/132/33
f 44/133/34 43/134/34 45/135/34 48/136/34
f 43/137/35 42/138/35 46/139/35 45/140/35
f 47/141/36 41/142/36 44/143/36 48/144/36
o cvr4
v 0.75 1 0.25
v 0.75 1 0.375
v 0.75 0.25 0.375
v 0.75 0.25 0.25
v 0.25 0.25 0.375
v 0.25 1 0.375
v 0.25 1 0.25
v 0.25 0.25 0.25
vt 0.5625 0.1875
vt 0.4375 0.1875
vt 0.4375 0.9375
vt 0.5625 0.9375
vt 0.5625 0.9375
vt 0.5625 0.1875
vt 0.4375 0.1875
vt 0.4375 0.9375
vt 0.25 1
vt 0.75 1
vt 0.75 0.875
vt 0.25 0.875
vt 0.75 0.875
vt 0.75 1
vt 0.25 1
vt 0.25 0.875
vt 0.75 0.875
vt 0.75 0.125
vt 0.25 0.125
vt 0.25 0.875
vt 0.5 1
vt 0 1
vt 0 0.25
vt 0.5 0.25
vn 1 0 0
vn -1 0 0
vn 0 1 0
vn 0 -1 0
vn 0 0 1
vn 0 0 -1
usemtl m_conveyor
f 49/145/37 50/146/37 51/147/37 52/148/37
f 53/149/38 54/150/38 55/151/38 56/152/38
f 54/153/39 50/154/39 49/155/39 55/156/39
usemtl none
f 52/157/40 51/158/40 53/159/40 56/160/40
usemtl m_conveyor
f 51/161/41 50/162/41 54/163/41 53/164/41
usemtl none
f 55/165/42 49/166/42 52/167/42 56/168/42
o mid
v 0.75 0.25 0.25
v 0.75 0.25 0.75
v 0.75 0 0.75
v 0.75 0 0.25
v 0.25 0 0.75
v 0.25 0.25 0.75
v 0.25 0.25 0.25
v 0.25 0 0.25
vt 0.5 1
vt 0 1
vt 0 0.75
vt 0.5 0.75
vt 0.5 0.75
vt 0.5 1
vt 0 1
vt 0 0.75
vt 0.25 0.25
vt 0.75 0.25
vt 0.75 0.75
vt 0.25 0.75
vt 0.75 0.25
vt 0.75 0.75
vt 0.25 0.75
vt 0.25 0.25
vt 0.5 0.75
vt 0.5 1
vt 0 1
vt 0 0.75
vt 0.5 1
vt 0 1
vt 0 0.75
vt 0.5 0.75
vn 1 0 0
vn -1 0 0
vn 0 1 0
vn 0 -1 0
vn 0 0 1
vn 0 0 -1
usemtl none
f 57/169/43 58/170/43 59/171/43 60/172/43
f 61/173/44 62/174/44 63/175/44 64/176/44
usemtl m_titanium
f 62/177/45 58/178/45 57/179/45 63/180/45
f 60/181/46 59/182/46 61/183/46 64/184/46
usemtl none
f 59/185/47 58/186/47 62/187/47 61/188/47
f 63/189/48 57/190/48 60/191/48 64/192/48