# Blender v2.93.4 OBJ File: ''
# www.blender.org
mtllib conveyor_material.mtl
o o1
v 0.25 0 0
v 0 0 0
v 0 1 0
v 0.25 1 0
v 0.25 -0 0.25
v 0.25 1 0.25
v 0 -0 0.25
v 0 1 0.25
vt 0.25 0
vt 0.5 0
vt 0.5 1
vt 0.25 1
vt 0 0
vt 0 1
vt 0.75 0
vt 1 0
vt 1 1
vt 0.75 1
vt 0 0.75
vt 0.25 0.75
vt 0 1
vt 0 0.75
vt 0.25 0.75
vt 0.25 1
vt 0 1
vn 0 0 -1
vn 1 0 0
vn 0 -0 1
vn -1 0 0
vn 0 1 0
vn 0 -1 -0
usemtl m_concrete
s 1
f 1/1/1 2/2/1 3/3/1 4/4/1
f 5/5/2 1/1/2 4/4/2 6/6/2
f 7/7/3 5/8/3 6/9/3 8/10/3
f 2/2/4 7/7/4 8/10/4 3/3/4
f 8/11/5 6/12/5 4/4/5 3/13/5
f 2/14/6 1/15/6 5/16/6 7/17/6
o o2
v 1 0 0
v 0.75 0 0
v 0.75 1 0
v 1 1 0
v 1 -0 0.25
v 1 1 0.25
v 0.75 -0 0.25
v 0.75 1 0.25
vt 0.25 0
vt 0.5 0
vt 0.5 1
vt 0.25 1
vt 0 0
vt 0 1
vt 0.75 0
vt 1 0
vt 1 1
vt 0.75 1
vt 0 0.75
vt 0.25 0.75
vt 0 1
vt 0 0.75
vt 0.25 0.75
vt 0.25 1
vt 0 1
vn 0 0 -1
vn 1 0 0
vn 0 -0 1
vn -1 -0 0
vn 0 1 0
vn 0 -1 -0
usemtl m_concrete
s 1
f 9/18/7 10/19/7 11/20/7 12/21/7
f 13/22/8 9/18/8 12/21/8 14/23/8
f 15/24/9 13/25/9 14/26/9 16/27/9
f 10/19/10 15/24/10 16/27/10 11/20/10
f 16/28/11 14/29/11 12/21/11 11/30/11
f 10/31/12 9/32/12 13/33/12 15/34/12
o o3
v 1 -0 0.75
v 0.75 -0 0.75
v 0.75 1 0.75
v 1 1 0.75
v 1 -0 1
v 1 1 1
v 0.75 -0 1
v 0.75 1 1
vt 0.25 0
vt 0.5 0
vt 0.5 1
vt 0.25 1
vt 0 0
vt 0 1
vt 0.75 0
vt 1 0
vt 1 1
vt 0.75 1
vt 0 0.75
vt 0.25 0.75
vt 0 1
vt 0 0.75
vt 0.25 0.75
vt 0.25 1
vt 0 1
vn 0 0 -1
vn 1 0 0
vn 0 -0 1
vn -1 0 0
vn 0 1 0
vn 0 -1 -0
usemtl m_concrete
s 1
f 17/35/13 18/36/13 19/37/13 20/38/13
f 21/39/14 17/35/14 20/38/14 22/40/14
f 23/41/15 21/42/15 22/43/15 24/44/15
f 18/36/16 23/41/16 24/44/16 19/37/16
f 24/45/17 22/46/17 20/38/17 19/47/17
f 18/48/18 17/49/18 21/50/18 23/51/18
o o4
v 0.25 -0 0.75
v 0 -0 0.75
v 0 1 0.75
v 0.25 1 0.75
v 0.25 -0 1
v 0.25 1 1
v 0 -0 1
v 0 1 1
vt 0.25 0
vt 0.5 0
vt 0.5 1
vt 0.25 1
vt 0 0
vt 0 1
vt 0.75 0
vt 1 0
vt 1 1
vt 0.75 1
vt 0 0.75
vt 0.25 0.75
vt 0 1
vt 0 0.75
vt 0.25 0.75
vt 0.25 1
vt 0 1
vn 0 0 -1
vn 1 0 0
vn 0 -0 1
vn -1 0 0
vn 0 1 0
vn 0 -1 -0
usemtl m_concrete
s 1
f 25/52/19 26/53/19 27/54/19 28/55/19
f 29/56/20 25/52/20 28/55/20 30/57/20
f 31/58/21 29/59/21 30/60/21 32/61/21
f 26/53/22 31/58/22 32/61/22 27/54/22
f 32/62/23 30/63/23 28/55/23 27/64/23
f 26/65/24 25/66/24 29/67/24 31/68/24
o r1
v 0.75 -0 0.125
v 0.25 -0 0.125
v 0.25 1 0.125
v 0.75 1 0.125
v 0.25 -0 0.125
v 0.75 -0 0.125
v 0.75 1 0.125
v 0.25 1 0.125
vt 0 0
vt 0.5 0
vt 0.5 1
vt 0 1
vt 0 0
vt 0.5 0
vt 0.5 1
vt 0 1
vt 0 0
vt 0 1
vt 0 0
vt 0 1
vt 0.5 1
vt 0 1
vt 0.5 1
vt 0.5 1
vt 0 1
vn 0 0 -1
vn 0 -0 1
vn 1 0 0
vn -1 -0 0
vn -0 1 -0
vn 0 -1 -0
usemtl m_grate_top
s 1
f 33/69/25 34/70/25 35/71/25 36/72/25
f 37/73/26 38/74/26 39/75/26 40/76/26
usemtl none
f 38/77/26 33/69/27 36/72/26 39/78/27
f 34/79/26 37/73/28 40/76/26 35/80/28
f 40/76/29 39/75/26 36/81/29 35/80/26
f 34/82/30 33/83/26 38/84/30 37/85/26
o r2
v 0.8875 -0 0.25
v 0.8875 -0 0.25
v 0.8875 1 0.25
v 0.8875 1 0.25
v 0.8875 -0 0.75
v 0.8875 -0 0.75
v 0.8875 1 0.75
v 0.8875 1 0.75
vt 0 0
vt 0 0
vt 0 1
vt 0 1
vt 0 0
vt 0 0
vt 0 1
vt 0 1
vt 0.5 1
vt 0.5 1
vt 0 1
vt 0 1
vt 0.5 1
vt 0.5 1
vt 0.5 0
vt 0.5 1
vt 0.5 0
vn 0 0 -1
vn 0 0 1
vn 0 0 0
vn 1 0 0
vn -1 -0 0
usemtl none
s 1
f 41/86/31 42/87/31 43/88/31 44/89/31
f 45/90/32 46/91/32 47/92/32 48/93/32
f 48/94/33 47/95/33 44/89/33 43/88/33
f 42/96/33 41/97/33 46/98/33 45/99/33
usemtl m_grate_top
f 46/91/34 41/100/34 44/101/34 47/92/34
f 42/87/35 45/102/35 48/94/35 43/88/35
o r3
v 0.75 -0 0.875000
v 0.25 -0 0.875000
v 0.25 1 0.875000
v 0.75 1 0.875000
v 0.25 -0 0.875000
v 0.75 -0 0.875000
v 0.75 1 0.875000
v 0.25 1 0.875000
vt 0 0
vt 0.5 0
vt 0.5 1
vt 0 1
vt 0 0
vt 0.5 0
vt 0.5 1
vt 0 1
vt 0 0
vt 0 1
vt 0 0
vt 0 1
vt 0.5 1
vt 0.5 1
vt 0 1
vt 0 1
vt 0.5 1
vn 0 0 -1
vn 0 -0 1
vn 1 0 0
vn -1 -0 0
vn -0 1 -0
vn 0 -1 -0
usemtl m_grate_top
s 1
f 49/103/36 50/104/36 51/105/36 52/106/36
f 53/107/37 54/108/37 55/109/37 56/110/37
usemtl none
f 54/111/37 49/103/38 52/106/37 55/112/38
f 50/113/37 53/107/39 56/110/37 51/114/39
f 56/115/40 55/112/37 52/106/40 51/105/37
f 50/116/41 49/117/37 54/118/41 53/119/37
o r4
v 0.125 -0 0.25
v 0.125 -0 0.25
v 0.125 1 0.25
v 0.125 1 0.25
v 0.125 -0 0.75
v 0.125 -0 0.75
v 0.125 1 0.75
v 0.125 1 0.75
vt 0 0
vt 0 0
vt 0 1
vt 0 1
vt 0 0
vt 0 0
vt 0 1
vt 0 1
vt 0.5 1
vt 0.5 1
vt 0.5 1
vt 0.5 1
vt 0 1
vt 0 1
vt 0.5 0
vt 0.5 0
vt 0.5 1
vn 0 0 -1
vn 0 0 1
vn 0 0 0
vn 1 0 0
vn -1 0 0
usemtl none
s 1
f 57/120/42 58/121/42 59/122/42 60/123/42
f 61/124/43 62/125/43 63/126/43 64/127/43
f 64/127/44 63/126/44 60/128/44 59/129/44
f 58/130/44 57/131/44 62/132/44 61/133/44
usemtl m_grate_top
f 62/125/45 57/134/45 60/128/45 63/126/45
f 58/121/46 61/135/46 64/136/46 59/122/46