# Made in Blockbench 4.9.4
mtllib conveyor_material.mtl

o o2
v 1 0 0.75
v 0.75 0 0.75
v 0.75 1 0.75
v 1 1 0.75
v 1 0 1
v 1 1 1
v 0.75 0 1
v 0.75 1 1
vt 0.25 0
vt 0.5 0
vt 0.5 1
vt 0.25 1
vt 0 0
vt 0.25 0
vt 0.25 1
vt 0 1
vt 0.75 0
vt 1 0
vt 1 1
vt 0.75 1
vt 0.5 0
vt 0.75 0
vt 0.75 1
vt 0.5 1
vt 0 0.75
vt 0.25 0.75
vt 0.25 1
vt 0 1
vt 0 0.75
vt 0.25 0.75
vt 0.25 1
vt 0 1
vn 0 0 -1
vn 1 0 0
vn 0 0 1
vn -1 0 0
vn 0 1 0
vn 0 -1 0
usemtl m_concrete
f 1/1/1 2/2/1 3/3/1 4/4/1
f 5/5/2 1/6/2 4/7/2 6/8/2
f 7/9/3 5/10/3 6/11/3 8/12/3
f 2/13/4 7/14/4 8/15/4 3/16/4
f 8/17/5 6/18/5 4/19/5 3/20/5
f 2/21/6 1/22/6 5/23/6 7/24/6
o o3
v 0.25 0 0.75
v 0 0 0.75
v 0 1 0.75
v 0.25 1 0.75
v 0.25 0 1
v 0.25 1 1
v 0 0 1
v 0 1 1
vt 0.25 0
vt 0.5 0
vt 0.5 1
vt 0.25 1
vt 0 0
vt 0.25 0
vt 0.25 1
vt 0 1
vt 0.75 0
vt 1 0
vt 1 1
vt 0.75 1
vt 0.5 0
vt 0.75 0
vt 0.75 1
vt 0.5 1
vt 0 0.75
vt 0.25 0.75
vt 0.25 1
vt 0 1
vt 0 0.75
vt 0.25 0.75
vt 0.25 1
vt 0 1
vn 0 0 -1
vn 1 0 0
vn 0 0 1
vn -1 0 0
vn 0 1 0
vn 0 -1 0
usemtl m_concrete
f 9/25/7 10/26/7 11/27/7 12/28/7
f 13/29/8 9/30/8 12/31/8 14/32/8
f 15/33/9 13/34/9 14/35/9 16/36/9
f 10/37/10 15/38/10 16/39/10 11/40/10
f 16/41/11 14/42/11 12/43/11 11/44/11
f 10/45/12 9/46/12 13/47/12 15/48/12
o o1
v 1 1 0
v 1 1 0.25
v 1 0 0.25
v 1 0 0
v 0 0 0.25
v 0 1 0.25
v 0 1 0
v 0 0 0
vt 0.25 1
vt 0 1
vt 0 0
vt 0.25 0
vt 0.25 0
vt 0.25 1
vt 0 1
vt 0 0
vt 0 0.75
vt 1 0.75
vt 1 1
vt 0 1
vt 1 0.75
vt 1 1
vt 0 1
vt 0 0.75
vt 1 0
vt 1 1
vt 0 1
vt 0 0
vt 1 1
vt 0 1
vt 0 0
vt 1 0
vn 1 0 0
vn -1 0 0
vn 0 1 0
vn 0 -1 0
vn 0 0 1
vn 0 0 -1
usemtl m_concrete
f 17/49/13 18/50/13 19/51/13 20/52/13
f 21/53/14 22/54/14 23/55/14 24/56/14
f 22/57/15 18/58/15 17/59/15 23/60/15
f 20/61/16 19/62/16 21/63/16 24/64/16
f 19/65/17 18/66/17 22/67/17 21/68/17
f 23/69/18 17/70/18 20/71/18 24/72/18
o cvr4
v 0.75 1 0.25
v 0.75 1 0.375
v 0.75 0 0.375
v 0.75 0 0.25
v 0.25 0 0.375
v 0.25 1 0.375
v 0.25 1 0.25
v 0.25 0 0.25
vt 0.5625 0
vt 0.4375 0
vt 0.4375 1
vt 0.5625 1
vt 0.5625 1
vt 0.5625 0
vt 0.4375 0
vt 0.4375 1
vt 0.25 1
vt 0.75 1
vt 0.75 0.875
vt 0.25 0.875
vt 0.75 1
vt 0.75 0.875
vt 0.25 0.875
vt 0.25 1
vt 0.75 1
vt 0.75 0
vt 0.25 0
vt 0.25 1
vt 0.5 1
vt 0 1
vt 0 0.25
vt 0.5 0.25
vn 1 0 0
vn -1 0 0
vn 0 1 0
vn 0 -1 0
vn 0 0 1
vn 0 0 -1
usemtl m_conveyor
f 25/73/19 26/74/19 27/75/19 28/76/19
f 29/77/20 30/78/20 31/79/20 32/80/20
f 30/81/21 26/82/21 25/83/21 31/84/21
f 28/85/22 27/86/22 29/87/22 32/88/22
f 27/89/23 26/90/23 30/91/23 29/92/23
usemtl none
f 31/93/24 25/94/24 28/95/24 32/96/24